<mxfile host="app.diagrams.net" agent="Mozilla/5.0 (X11; Linux x86_64) AppleWebKit/537.36 (KHTML, like Gecko) Chrome/134.0.0.0 Safari/537.36 Edg/134.0.0.0" version="26.1.1">
  <diagram name="Page-1" id="hF1HuIxm85bUze64H3EA">
    <mxGraphModel>
      <root>
        <mxCell id="0" />
        <mxCell id="1" parent="0" />
        <mxCell id="2" value="Security" style="whiteSpace=wrap;strokeWidth=2;" vertex="1" parent="1">
          <mxGeometry x="8" y="863" width="256" height="797" as="geometry" />
        </mxCell>
        <mxCell id="3" value="Applications" style="whiteSpace=wrap;strokeWidth=2;" vertex="1" parent="1">
          <mxGeometry x="8" y="8" width="256" height="835" as="geometry" />
        </mxCell>
        <mxCell id="4" value="Connectivity" style="whiteSpace=wrap;strokeWidth=2;" vertex="1" parent="1">
          <mxGeometry x="839" y="175" width="141" height="856" as="geometry" />
        </mxCell>
        <mxCell id="5" value="Cloud Providers" style="whiteSpace=wrap;strokeWidth=2;" vertex="1" parent="1">
          <mxGeometry x="529" y="113" width="184" height="999" as="geometry" />
        </mxCell>
        <mxCell id="6" value="Data Centers" style="whiteSpace=wrap;strokeWidth=2;" vertex="1" parent="1">
          <mxGeometry x="314" y="34" width="165" height="1517" as="geometry" />
        </mxCell>
        <mxCell id="7" value="Data Center 1" style="ellipse;aspect=fixed;strokeWidth=2;whiteSpace=wrap;" vertex="1" parent="1">
          <mxGeometry x="339" y="168" width="115" height="115" as="geometry" />
        </mxCell>
        <mxCell id="8" value="Data Center 2" style="ellipse;aspect=fixed;strokeWidth=2;whiteSpace=wrap;" vertex="1" parent="1">
          <mxGeometry x="339" y="1145" width="115" height="115" as="geometry" />
        </mxCell>
        <mxCell id="9" value="Data Center 3" style="ellipse;aspect=fixed;strokeWidth=2;whiteSpace=wrap;" vertex="1" parent="1">
          <mxGeometry x="339" y="760" width="115" height="115" as="geometry" />
        </mxCell>
        <mxCell id="10" value="Cloud Provider 1" style="ellipse;aspect=fixed;strokeWidth=2;whiteSpace=wrap;" vertex="1" parent="1">
          <mxGeometry x="554" y="148" width="134" height="134" as="geometry" />
        </mxCell>
        <mxCell id="11" value="Cloud Provider 2" style="ellipse;aspect=fixed;strokeWidth=2;whiteSpace=wrap;" vertex="1" parent="1">
          <mxGeometry x="554" y="757" width="134" height="134" as="geometry" />
        </mxCell>
        <mxCell id="12" value="Cloud Provider 3" style="ellipse;aspect=fixed;strokeWidth=2;whiteSpace=wrap;" vertex="1" parent="1">
          <mxGeometry x="554" y="943" width="134" height="134" as="geometry" />
        </mxCell>
        <mxCell id="13" value="Internet" style="ellipse;aspect=fixed;strokeWidth=2;whiteSpace=wrap;" vertex="1" parent="1">
          <mxGeometry x="875" y="738" width="69" height="69" as="geometry" />
        </mxCell>
        <mxCell id="14" value="Direct Link" style="ellipse;aspect=fixed;strokeWidth=2;whiteSpace=wrap;" vertex="1" parent="1">
          <mxGeometry x="864" y="905" width="91" height="91" as="geometry" />
        </mxCell>
        <mxCell id="15" value="User App 1" style="ellipse;aspect=fixed;strokeWidth=2;whiteSpace=wrap;" vertex="1" parent="1">
          <mxGeometry x="89" y="43" width="94" height="94" as="geometry" />
        </mxCell>
        <mxCell id="16" value="User App 2" style="ellipse;aspect=fixed;strokeWidth=2;whiteSpace=wrap;" vertex="1" parent="1">
          <mxGeometry x="89" y="589" width="94" height="94" as="geometry" />
        </mxCell>
        <mxCell id="17" value="User App 3" style="ellipse;aspect=fixed;strokeWidth=2;whiteSpace=wrap;" vertex="1" parent="1">
          <mxGeometry x="89" y="313" width="94" height="94" as="geometry" />
        </mxCell>
        <mxCell id="18" value="AI App 1" style="ellipse;aspect=fixed;strokeWidth=2;whiteSpace=wrap;" vertex="1" parent="1">
          <mxGeometry x="98" y="187" width="76" height="76" as="geometry" />
        </mxCell>
        <mxCell id="19" value="AI App 2" style="ellipse;aspect=fixed;strokeWidth=2;whiteSpace=wrap;" vertex="1" parent="1">
          <mxGeometry x="98" y="733" width="76" height="76" as="geometry" />
        </mxCell>
        <mxCell id="20" value="ML App 1" style="ellipse;aspect=fixed;strokeWidth=2;whiteSpace=wrap;" vertex="1" parent="1">
          <mxGeometry x="95" y="457" width="82" height="82" as="geometry" />
        </mxCell>
        <mxCell id="21" value="Firewall" style="ellipse;aspect=fixed;strokeWidth=2;whiteSpace=wrap;" vertex="1" parent="1">
          <mxGeometry x="101" y="1060" width="70" height="70" as="geometry" />
        </mxCell>
        <mxCell id="22" value="Web Application Firewall" style="ellipse;aspect=fixed;strokeWidth=2;whiteSpace=wrap;" vertex="1" parent="1">
          <mxGeometry x="42" y="1437" width="189" height="189" as="geometry" />
        </mxCell>
        <mxCell id="23" value="SIEM System" style="ellipse;aspect=fixed;strokeWidth=2;whiteSpace=wrap;" vertex="1" parent="1">
          <mxGeometry x="80" y="898" width="112" height="112" as="geometry" />
        </mxCell>
        <mxCell id="24" value="Intrusion Detection System" style="ellipse;aspect=fixed;strokeWidth=2;whiteSpace=wrap;" vertex="1" parent="1">
          <mxGeometry x="33" y="1181" width="206" height="206" as="geometry" />
        </mxCell>
        <mxCell id="25" value="" style="curved=1;startArrow=none;endArrow=block;exitX=1;exitY=0.25;entryX=0;entryY=0.33;" edge="1" parent="1" source="7" target="10">
          <mxGeometry relative="1" as="geometry">
            <Array as="points">
              <mxPoint x="479" y="184" />
              <mxPoint x="529" y="184" />
            </Array>
          </mxGeometry>
        </mxCell>
        <mxCell id="26" value="" style="curved=1;startArrow=none;endArrow=block;exitX=0.57;exitY=0.99;entryX=0;entryY=0.3;" edge="1" parent="1" source="7" target="11">
          <mxGeometry relative="1" as="geometry">
            <Array as="points">
              <mxPoint x="479" y="787" />
              <mxPoint x="529" y="787" />
            </Array>
          </mxGeometry>
        </mxCell>
        <mxCell id="27" value="" style="curved=1;startArrow=none;endArrow=block;exitX=0.66;exitY=0;entryX=0.14;entryY=1;" edge="1" parent="1" source="8" target="11">
          <mxGeometry relative="1" as="geometry">
            <Array as="points">
              <mxPoint x="479" y="951" />
              <mxPoint x="529" y="951" />
            </Array>
          </mxGeometry>
        </mxCell>
        <mxCell id="28" value="" style="curved=1;startArrow=none;endArrow=block;exitX=0.7;exitY=0;entryX=0;entryY=0.41;" edge="1" parent="1" source="8" target="12">
          <mxGeometry relative="1" as="geometry">
            <Array as="points">
              <mxPoint x="479" y="993" />
              <mxPoint x="529" y="993" />
            </Array>
          </mxGeometry>
        </mxCell>
        <mxCell id="29" value="" style="curved=1;startArrow=none;endArrow=block;exitX=0.92;exitY=0;entryX=0.41;entryY=1;" edge="1" parent="1" source="9" target="10">
          <mxGeometry relative="1" as="geometry">
            <Array as="points">
              <mxPoint x="479" y="721" />
              <mxPoint x="529" y="721" />
            </Array>
          </mxGeometry>
        </mxCell>
        <mxCell id="30" value="" style="curved=1;startArrow=none;endArrow=block;exitX=0.65;exitY=1;entryX=0;entryY=0.94;" edge="1" parent="1" source="9" target="12">
          <mxGeometry relative="1" as="geometry">
            <Array as="points">
              <mxPoint x="479" y="1092" />
              <mxPoint x="529" y="1092" />
            </Array>
          </mxGeometry>
        </mxCell>
        <mxCell id="31" value="DirectLink" style="curved=1;startArrow=none;endArrow=block;exitX=1;exitY=0.5;entryX=0.44;entryY=-0.01;" edge="1" parent="1" source="10" target="13">
          <mxGeometry relative="1" as="geometry">
            <Array as="points">
              <mxPoint x="839" y="215" />
            </Array>
          </mxGeometry>
        </mxCell>
        <mxCell id="32" value="DirectLink" style="curved=1;startArrow=none;endArrow=block;exitX=1;exitY=0.5;entryX=0;entryY=0.86;" edge="1" parent="1" source="11" target="13">
          <mxGeometry relative="1" as="geometry">
            <Array as="points">
              <mxPoint x="839" y="824" />
            </Array>
          </mxGeometry>
        </mxCell>
        <mxCell id="33" value="DirectLink" style="curved=1;startArrow=none;endArrow=block;exitX=1;exitY=0.5;entryX=0.35;entryY=1;" edge="1" parent="1" source="12" target="13">
          <mxGeometry relative="1" as="geometry">
            <Array as="points">
              <mxPoint x="839" y="1010" />
            </Array>
          </mxGeometry>
        </mxCell>
        <mxCell id="34" value="" style="curved=1;startArrow=none;endArrow=block;exitX=1;exitY=0.5;entryX=0.2;entryY=0;" edge="1" parent="1" source="15" target="7">
          <mxGeometry relative="1" as="geometry">
            <Array as="points">
              <mxPoint x="314" y="90" />
            </Array>
          </mxGeometry>
        </mxCell>
        <mxCell id="35" value="" style="curved=1;startArrow=none;endArrow=block;exitX=1;exitY=0.5;entryX=0.38;entryY=0;" edge="1" parent="1" source="16" target="8">
          <mxGeometry relative="1" as="geometry">
            <Array as="points">
              <mxPoint x="264" y="636" />
              <mxPoint x="289" y="869" />
              <mxPoint x="314" y="869" />
            </Array>
          </mxGeometry>
        </mxCell>
        <mxCell id="36" value="" style="curved=1;startArrow=none;endArrow=block;exitX=1;exitY=0.5;entryX=0.27;entryY=0;" edge="1" parent="1" source="17" target="9">
          <mxGeometry relative="1" as="geometry">
            <Array as="points">
              <mxPoint x="264" y="360" />
              <mxPoint x="289" y="637" />
              <mxPoint x="314" y="637" />
            </Array>
          </mxGeometry>
        </mxCell>
        <mxCell id="37" value="" style="curved=1;startArrow=none;endArrow=block;exitX=1;exitY=0.5;entryX=0;entryY=0.49;" edge="1" parent="1" source="18" target="7">
          <mxGeometry relative="1" as="geometry">
            <Array as="points" />
          </mxGeometry>
        </mxCell>
        <mxCell id="38" value="" style="curved=1;startArrow=none;endArrow=block;exitX=1;exitY=0.5;entryX=0.34;entryY=0;" edge="1" parent="1" source="19" target="8">
          <mxGeometry relative="1" as="geometry">
            <Array as="points">
              <mxPoint x="264" y="771" />
              <mxPoint x="289" y="946" />
              <mxPoint x="314" y="946" />
            </Array>
          </mxGeometry>
        </mxCell>
        <mxCell id="39" value="" style="curved=1;startArrow=none;endArrow=block;exitX=1;exitY=0.5;entryX=0.1;entryY=0;" edge="1" parent="1" source="20" target="9">
          <mxGeometry relative="1" as="geometry">
            <Array as="points">
              <mxPoint x="264" y="498" />
              <mxPoint x="289" y="716" />
              <mxPoint x="314" y="716" />
            </Array>
          </mxGeometry>
        </mxCell>
        <mxCell id="40" value="" style="curved=1;startArrow=none;endArrow=block;exitX=0.89;exitY=0.01;entryX=0.4;entryY=0.99;" edge="1" parent="1" source="21" target="7">
          <mxGeometry relative="1" as="geometry">
            <Array as="points">
              <mxPoint x="264" y="929" />
              <mxPoint x="289" y="617" />
              <mxPoint x="314" y="617" />
            </Array>
          </mxGeometry>
        </mxCell>
        <mxCell id="41" value="" style="curved=1;startArrow=none;endArrow=block;exitX=1;exitY=0.6;entryX=0.01;entryY=0;" edge="1" parent="1" source="21" target="8">
          <mxGeometry relative="1" as="geometry">
            <Array as="points">
              <mxPoint x="264" y="1119" />
              <mxPoint x="314" y="1119" />
            </Array>
          </mxGeometry>
        </mxCell>
        <mxCell id="42" value="" style="curved=1;startArrow=none;endArrow=block;exitX=1;exitY=0.5;entryX=0.38;entryY=1;" edge="1" parent="1" source="22" target="8">
          <mxGeometry relative="1" as="geometry">
            <Array as="points">
              <mxPoint x="314" y="1531" />
            </Array>
          </mxGeometry>
        </mxCell>
        <mxCell id="43" value="" style="curved=1;startArrow=none;endArrow=block;exitX=1;exitY=0.54;entryX=0;entryY=0.24;" edge="1" parent="1" source="23" target="9">
          <mxGeometry relative="1" as="geometry">
            <Array as="points">
              <mxPoint x="264" y="964" />
              <mxPoint x="289" y="775" />
              <mxPoint x="314" y="775" />
            </Array>
          </mxGeometry>
        </mxCell>
        <mxCell id="44" value="" style="curved=1;startArrow=none;endArrow=block;exitX=0.81;exitY=0;entryX=0;entryY=0.69;" edge="1" parent="1" source="24" target="9">
          <mxGeometry relative="1" as="geometry">
            <Array as="points">
              <mxPoint x="264" y="1079" />
              <mxPoint x="289" y="849" />
              <mxPoint x="314" y="849" />
            </Array>
          </mxGeometry>
        </mxCell>
      </root>
    </mxGraphModel>
  </diagram>
</mxfile>
